<svg width="800" height="1000" viewBox="0 0 800 1000" xmlns="http://www.w3.org/2000/svg">
  <!-- Chasis Principal (Soccer Jr. Model) -->
  <path d="M 298.74206,465.05562 V 699.38633 H 128.66332 v 151.1811 H 657.79717 V 699.38633 H 487.71843 V 465.05562 A 11.338583,11.338583 0 0 0 476.37985,453.71704 H 459.37198 V 245.84302 h 94.48819 A 18.897638,18.897638 0 0 0 572.7578,226.94538 V 196.70916 A 18.897638,18.897638 0 0 0 553.86017,177.81153 H 232.60032 a 18.897638,18.897638 0 0 0 -18.89763,18.89763 v 30.23622 a 18.897638,18.897638 0 0 0 18.89763,18.89764 h 94.48819 v 207.87402 h -17.00787 a 11.338583,11.338583 0 0 0 -11.33858,11.33858 z" 
        fill="none" stroke="#f97316" stroke-width="5"/>
  
  <!-- Referencia de Ruedas (Opcional) -->
  <path d="M 15.277486,933.71699 H 109.76568 V 688.04775 H 15.277486 Z" fill="#333" opacity="0.3"/>
  <path d="M 676.69481,688.04775 V 933.71699 H 771.183 V 688.04775 Z" fill="#333" opacity="0.3"/>
  
  <text x="400" y="50" font-family="Arial" font-size="24" fill="#666" text-anchor="middle">Soccer Jr. Chassis Model (Reference)</text>
</svg>
